<svg width="60" height="60" fill="none" xmlns="http://www.w3.org/2000/svg"><path d="M46 11.333h2.667V14A2.666 2.666 0 1054 14v-2.667h2.667a2.667 2.667 0 100-5.333H54V3.333a2.667 2.667 0 10-5.333 0V6H46a2.667 2.667 0 000 5.333zm-29.333 5.334v26.666a2.667 2.667 0 105.333 0V16.667a2.667 2.667 0 00-5.333 0zM55.6 22a2.668 2.668 0 00-2.08 3.147A24 24 0 1134.853 6.48a2.72 2.72 0 001.067-5.333A28.8 28.8 0 0030 .667 29.333 29.333 0 1059.333 30a28.8 28.8 0 00-.586-5.867A2.667 2.667 0 0055.6 22zm-28.267 0v2.667A8 8 0 0029.413 30a8 8 0 00-2.08 5.333V38a8 8 0 008 8H38a8 8 0 008-8v-2.667A8 8 0 0043.92 30 8 8 0 0046 24.667V22a8 8 0 00-8-8h-2.667a8 8 0 00-8 8zm13.334 16A2.667 2.667 0 0138 40.667h-2.667A2.667 2.667 0 0132.667 38v-2.667a2.667 2.667 0 012.666-2.666H38a2.667 2.667 0 012.667 2.666V38zm0-16v2.667A2.667 2.667 0 0138 27.333h-2.667a2.667 2.667 0 01-2.666-2.666V22a2.667 2.667 0 012.666-2.667H38A2.667 2.667 0 0140.667 22z" fill="#111418"/></svg>