<svg width="31" height="52" fill="none" xmlns="http://www.w3.org/2000/svg"><g filter="url(#filter0_d_727_3183)"><path d="M3.71 21.628l17.896 17.224c.086.084.19.135.296.146a.463.463 0 00.31-.083.689.689 0 00.232-.286.972.972 0 00.085-.406v-4.538c0-.987-.356-1.926-.96-2.506l-10.577-10.18L21.57 10.82c.604-.58.96-1.509.96-2.505v-4.54c0-.629-.538-.996-.923-.629L3.71 20.37c-.32.31-.32.949 0 1.258z" fill="#fff"/></g><defs><filter id="filter0_d_727_3183" x=".471" y="0" width="35.059" height="52" filterUnits="userSpaceOnUse" color-interpolation-filters="sRGB"><feFlood flood-opacity="0" result="BackgroundImageFix"/><feColorMatrix in="SourceAlpha" values="0 0 0 0 0 0 0 0 0 0 0 0 0 0 0 0 0 0 127 0" result="hardAlpha"/><feOffset dx="5" dy="5"/><feGaussianBlur stdDeviation="4"/><feComposite in2="hardAlpha" operator="out"/><feColorMatrix values="0 0 0 0 0 0 0 0 0 0 0 0 0 0 0 0 0 0 0.15 0"/><feBlend in2="BackgroundImageFix" result="effect1_dropShadow_727_3183"/><feBlend in="SourceGraphic" in2="effect1_dropShadow_727_3183" result="shape"/></filter></defs></svg>