<svg width="31" height="52" fill="none" xmlns="http://www.w3.org/2000/svg"><g filter="url(#filter0_d_727_3207)"><path d="M22.29 20.372L4.393 3.148a.463.463 0 00-.607-.063.69.69 0 00-.231.286.974.974 0 00-.085.406v4.538c0 .987.356 1.926.96 2.506l10.577 10.18L4.43 31.18c-.604.58-.96 1.509-.96 2.505v4.539c0 .629.538.996.923.629L22.29 21.63c.32-.31.32-.949 0-1.258z" fill="#fff"/></g><defs><filter id="filter0_d_727_3207" x=".471" y="0" width="35.059" height="52" filterUnits="userSpaceOnUse" color-interpolation-filters="sRGB"><feFlood flood-opacity="0" result="BackgroundImageFix"/><feColorMatrix in="SourceAlpha" values="0 0 0 0 0 0 0 0 0 0 0 0 0 0 0 0 0 0 127 0" result="hardAlpha"/><feOffset dx="5" dy="5"/><feGaussianBlur stdDeviation="4"/><feComposite in2="hardAlpha" operator="out"/><feColorMatrix values="0 0 0 0 0 0 0 0 0 0 0 0 0 0 0 0 0 0 0.15 0"/><feBlend in2="BackgroundImageFix" result="effect1_dropShadow_727_3207"/><feBlend in="SourceGraphic" in2="effect1_dropShadow_727_3207" result="shape"/></filter></defs></svg>