<svg width="98" height="56" fill="none" xmlns="http://www.w3.org/2000/svg"><path d="M47.825 52.602c14.321 0 25.93-11.61 25.93-25.931C73.756 12.349 62.147.74 47.826.74c-14.322 0-25.931 11.61-25.931 25.93 0 14.322 11.61 25.932 25.93 25.932z" fill="#fff"/><path d="M73.43 22.522H57.841L68.864 11.5l-5.868-5.87-11.023 11.024V1.064h-8.297v15.59L32.65 5.631 26.782 11.5l11.026 11.023H22.215v8.301h15.593L26.782 41.846l5.868 5.868 11.026-11.026V52.28h8.297V36.687l11.023 11.027 5.868-5.868L57.84 30.823h15.59v-8.301z" fill="#DA3B43"/><path d="M47.825 53.341a26.67 26.67 0 1126.667-26.67 26.7 26.7 0 01-26.667 26.67zm0-51.858A25.192 25.192 0 1073.013 26.67 25.217 25.217 0 0047.825 1.483z" fill="#111"/><path d="M47.825 46.316c10.85 0 19.645-8.796 19.645-19.645 0-10.85-8.795-19.646-19.645-19.646s-19.646 8.796-19.646 19.646c0 10.85 8.796 19.645 19.646 19.645z" fill="#fff"/><path d="M47.825 42.286c8.623 0 15.615-6.991 15.615-15.615s-6.991-15.615-15.615-15.615S32.21 18.046 32.21 26.67s6.99 15.615 15.615 15.615z" fill="#fff"/><path d="M47.825 43.768a17.098 17.098 0 1117.093-17.097 17.117 17.117 0 01-17.094 17.097zm0-31.233A14.14 14.14 0 1061.96 26.67a14.155 14.155 0 00-14.136-14.136z" fill="#111"/><path d="M47.825 14.265c-1.01 4.981-11.363 10.235-10.505 15.16.665 3.79 2.899 4.778 5.546 4.778 2.648 0 4.241-2.186 4.241-2.186 0 3.043-2.588 6.101-2.588 6.101h6.608s-2.589-3.058-2.589-6.1c0 0 1.594 2.166 4.238 2.166 2.643 0 4.877-.987 5.546-4.777.865-4.907-9.488-10.161-10.497-15.142z" fill="#111"/><path d="M47.825 47.056a20.385 20.385 0 1120.38-20.385 20.407 20.407 0 01-20.38 20.385zm0-39.287A18.906 18.906 0 1066.727 26.67 18.924 18.924 0 0047.825 7.769z" fill="#111"/><path d="M97.173 56H0l9.189-8.25L0 39.506h97.173l-9.189 8.246L97.173 56z" fill="#DA3B43"/><path d="M23.535 52.406a4.094 4.094 0 01-1.941-.422 2.921 2.921 0 01-1.213-1.201 4.16 4.16 0 01-.47-1.82v-2.425a4.137 4.137 0 01.47-1.812c.276-.51.699-.926 1.213-1.194a4.139 4.139 0 011.934-.418 4.341 4.341 0 011.575.259c.408.145.784.366 1.11.65.262.231.48.508.643.818.126.227.203.48.225.74a.192.192 0 01-.063.184.296.296 0 01-.207.074h-.761a.278.278 0 01-.185-.052.477.477 0 01-.111-.18 2.113 2.113 0 00-.37-.66 1.978 1.978 0 00-.71-.535 2.632 2.632 0 00-1.11-.215 2.408 2.408 0 00-1.656.555c-.418.37-.643.983-.676 1.849-.025.764-.025 1.53 0 2.296.034.858.262 1.474.684 1.849.453.378 1.03.574 1.62.55.42.009.838-.08 1.22-.258.353-.168.647-.44.843-.78.221-.41.328-.87.31-1.335v-.54h-1.934a.288.288 0 01-.28-.189.304.304 0 01-.02-.122v-.399a.313.313 0 01.086-.226.289.289 0 01.214-.08h2.914a.28.28 0 01.218.08.33.33 0 01.078.226v1.239a3.809 3.809 0 01-.43 1.849c-.286.524-.726.95-1.26 1.22a4.17 4.17 0 01-1.96.425zm4.692-.126a.266.266 0 01-.259-.259 1.03 1.03 0 010-.14l3.214-8.35a.503.503 0 01.14-.206.407.407 0 01.27-.078h.877a.418.418 0 01.273.078.503.503 0 01.14.207l3.188 8.345a.542.542 0 01.026.14.266.266 0 01-.259.26h-.658a.291.291 0 01-.226-.078.452.452 0 01-.096-.14l-.71-1.85h-4.23l-.71 1.85a.316.316 0 01-.322.218l-.658.003zm2.064-3.161h3.483l-1.742-4.578-1.741 4.578zm7.458 3.161a.291.291 0 01-.3-.296v-8.423a.319.319 0 01.085-.229.286.286 0 01.215-.081h.643a.318.318 0 01.233.077.566.566 0 01.104.13l2.721 5.21 2.747-5.21a.572.572 0 01.096-.13.29.29 0 01.226-.077h.632a.305.305 0 01.226.081.317.317 0 01.085.23v8.422a.29.29 0 01-.31.296h-.633a.286.286 0 01-.21-.085.275.275 0 01-.086-.21v-6.35l-2.155 4.209a.436.436 0 01-.152.2.473.473 0 01-.259.07h-.4a.421.421 0 01-.258-.07.578.578 0 01-.155-.2l-2.167-4.208v6.348a.292.292 0 01-.296.296h-.632zm10.009 0a.288.288 0 01-.218-.085.295.295 0 01-.078-.21V43.56a.333.333 0 01.078-.229.284.284 0 01.218-.081h3.535a3.455 3.455 0 011.583.314c.38.188.695.487.902.858.195.374.294.79.288 1.213.01.312-.05.623-.174.91-.1.234-.247.446-.432.62-.15.146-.32.27-.503.37.362.186.672.46.898.799.27.395.407.864.392 1.342a2.7 2.7 0 01-.321 1.305 2.37 2.37 0 01-.962.947 3.18 3.18 0 01-1.567.37l-3.639-.019zm.969-5.213H51.1c.448.035.893-.097 1.25-.37a1.325 1.325 0 00.425-1.04 1.217 1.217 0 00-.426-1.005 1.923 1.923 0 00-1.25-.351h-2.373v2.766zm0 4.167h2.503a1.712 1.712 0 001.276-.451 1.612 1.612 0 000-2.237 1.738 1.738 0 00-1.276-.444h-2.503v3.132zm7.439 1.046a.277.277 0 01-.218-.085.295.295 0 01-.077-.21v-8.453a.31.31 0 01.077-.215.274.274 0 01.218-.081h.684a.285.285 0 01.211.081.303.303 0 01.085.215v7.61h4.282a.304.304 0 01.226.084.311.311 0 01.085.226v.518a.286.286 0 01-.19.276.304.304 0 01-.121.02l-5.262.014zm12.661-9.03a.289.289 0 01.222.082.31.31 0 01.077.215v8.423a.314.314 0 01-.077.225.287.287 0 01-.222.085h-5.328a.287.287 0 01-.219-.085.314.314 0 01-.077-.225v-.488a.3.3 0 01.077-.222.296.296 0 01.219-.078h4.389v-2.825h-4.105a.283.283 0 01-.218-.081.321.321 0 01-.078-.226v-.477a.3.3 0 01.078-.214.288.288 0 01.218-.085h4.105v-2.929h-4.49a.3.3 0 01-.221-.077.294.294 0 01-.078-.219v-.517a.31.31 0 01.078-.215.29.29 0 01.222-.081l5.428.015zm2.141 9.03a.287.287 0 01-.218-.085.296.296 0 01-.078-.21V43.56a.333.333 0 01.078-.229.284.284 0 01.218-.081h3.15a3.568 3.568 0 012.307.684 2.432 2.432 0 01.85 2.022 2.51 2.51 0 01-.495 1.62 2.563 2.563 0 01-1.346.873l1.986 3.43a.319.319 0 01.037.141.237.237 0 01-.081.182.277.277 0 01-.189.077h-.621a.414.414 0 01-.322-.118 2.043 2.043 0 01-.18-.23l-1.868-3.275h-2.26v3.327a.29.29 0 01-.31.296h-.658zm.969-4.722h2.13a2.185 2.185 0 001.441-.406 1.753 1.753 0 000-2.404 2.148 2.148 0 00-1.449-.414h-2.13l.008 3.224z" fill="#fff"/></svg>