<svg width="80" height="80" fill="none" xmlns="http://www.w3.org/2000/svg"><path d="M40.005 78.891c21.48 0 38.891-17.412 38.891-38.891S61.484 1.11 40.006 1.11C18.525 1.11 1.114 18.52 1.114 40s17.412 38.891 38.89 38.891z" fill="#fff"/><path d="M78.409 33.778h-23.38l16.53-16.531-8.8-8.801-16.531 16.531V1.597H33.784v23.38L17.247 8.446l-8.8 8.8 16.536 16.532H1.597v12.45h23.386L8.446 62.759l8.8 8.8 16.538-16.536V78.41h12.444V55.023L62.759 71.56l8.8-8.8-16.53-16.532h23.38v-12.45z" fill="#DA3B43"/><path d="M40.006 80A40 40 0 1180 40a40.044 40.044 0 01-39.994 40zm0-77.776A37.782 37.782 0 1077.782 40 37.82 37.82 0 0040.006 2.224z" fill="#111418"/><path d="M40.006 69.463c16.272 0 29.463-13.19 29.463-29.463 0-16.272-13.191-29.464-29.463-29.464-16.273 0-29.464 13.192-29.464 29.464s13.191 29.463 29.464 29.463z" fill="#fff"/><path d="M40.006 63.42c12.934 0 23.419-10.486 23.419-23.42 0-12.934-10.485-23.419-23.42-23.419-12.933 0-23.418 10.485-23.418 23.42 0 12.933 10.485 23.418 23.419 23.418z" fill="#fff"/><path d="M40.006 65.643A25.642 25.642 0 1165.643 40a25.67 25.67 0 01-25.637 25.643zm0-46.844A21.207 21.207 0 1061.206 40a21.228 21.228 0 00-21.2-21.2z" fill="#111418"/><path d="M40.006 21.395c-1.514 7.47-17.042 15.35-15.755 22.737.998 5.684 4.347 7.164 8.318 7.164 3.97 0 6.36-3.277 6.36-3.277 0 4.564-3.881 9.15-3.881 9.15h9.91s-3.882-4.586-3.882-9.15c0 0 2.39 3.25 6.355 3.25 3.965 0 7.315-1.48 8.318-7.165 1.298-7.359-14.23-15.24-15.743-22.71z" fill="#111418"/><path d="M40.006 70.573A30.573 30.573 0 1170.573 40a30.606 30.606 0 01-30.567 30.573zm0-58.922a28.354 28.354 0 1028.349 28.35 28.382 28.382 0 00-28.35-28.35z" fill="#111418"/></svg>