<svg width="10" height="16" fill="none" xmlns="http://www.w3.org/2000/svg"><path d="M.5 4.358a.4.4 0 00.407.416h1.392c.233 0 .419-.19.45-.421.151-1.107.91-1.914 2.264-1.914 1.157 0 2.217.579 2.217 1.97 0 1.072-.631 1.565-1.628 2.314-1.136.826-2.035 1.79-1.971 3.354l.005.366a.422.422 0 00.422.415h1.368a.422.422 0 00.422-.422v-.177c0-1.212.46-1.565 1.704-2.508 1.028-.781 2.1-1.649 2.1-3.47C9.652 1.732 7.498.5 5.14.5 3.003.5.661 1.496.501 4.358zm2.628 9.725c0 .9.717 1.564 1.704 1.564 1.028 0 1.735-.665 1.735-1.564 0-.932-.709-1.587-1.737-1.587-.985 0-1.702.655-1.702 1.587z" fill="#848383"/></svg>