<svg width="82" height="32" fill="none" xmlns="http://www.w3.org/2000/svg"><path d="M31.575 17.636c-1.58 1.596-3.596 2.394-6.047 2.394-2.452 0-4.468-.798-6.047-2.394a8.006 8.006 0 01-2.058-3.603c.372-.01.75-.011 1.137-.002.665.015 1.32.038 1.966.07a5.638 5.638 0 001.028 1.684c1.004 1.119 2.328 1.678 3.974 1.678 1.629 0 2.945-.56 3.949-1.678.17-.194.328-.396.47-.607 1.032.185 2.032.386 3.001.598a8.136 8.136 0 01-1.373 1.86zm5.149-.949v3.047h10.144v-.086a184.604 184.604 0 01-3.557-1.057c-1.998-.608-4.186-1.274-6.587-1.904zm41.421 1.518l.572 1.529h3.282l-1.194-3.042c-.837.48-1.723.984-2.66 1.513zm-72.317-.097l.638 1.626h3.603l1.914-4.871c-3.032.883-5.133 2.276-6.155 3.245z" fill="#fff"/><path d="M17.112 11.515c0 .155.003.308.01.459a77.205 77.205 0 012.964.015 8.678 8.678 0 01-.012-.474c0-1.728.493-3.151 1.48-4.27 1.004-1.119 2.329-1.678 3.974-1.678 1.629 0 2.945.56 3.949 1.678 1.004 1.119 1.506 2.542 1.506 4.27a7.42 7.42 0 01-.202 1.763c.974.221 1.923.466 2.858.731a9.79 9.79 0 00.305-2.494c0-2.468-.79-4.5-2.37-6.096C29.996 3.806 27.98 3 25.529 3c-2.452 0-4.467.806-6.047 2.419-1.58 1.596-2.37 3.628-2.37 6.096z" fill="url(#paint0_linear_915_37827)"/><path d="M17.112 11.515c0 .155.003.308.01.459a77.205 77.205 0 012.964.015 8.678 8.678 0 01-.012-.474c0-1.728.493-3.151 1.48-4.27 1.004-1.119 2.329-1.678 3.974-1.678 1.629 0 2.945.56 3.949 1.678 1.004 1.119 1.506 2.542 1.506 4.27a7.42 7.42 0 01-.202 1.763c.974.221 1.923.466 2.858.731a9.79 9.79 0 00.305-2.494c0-2.468-.79-4.5-2.37-6.096C29.996 3.806 27.98 3 25.529 3c-2.452 0-4.467.806-6.047 2.419-1.58 1.596-2.37 3.628-2.37 6.096z" fill="url(#paint1_linear_915_37827)"/><path d="M16.536 3.271l-3.494 8.896a37.167 37.167 0 00-3.271.415l3.483-9.31h3.282z" fill="url(#paint2_linear_915_37827)"/><path d="M16.536 3.271l-3.494 8.896a37.167 37.167 0 00-3.271.415l3.483-9.31h3.282z" fill="url(#paint3_linear_915_37827)"/><path d="M7.005 13.223L3.283 3.27H0l4.307 10.965a19.805 19.805 0 012.698-1.013z" fill="url(#paint4_linear_915_37827)"/><path d="M7.005 13.223L3.283 3.27H0l4.307 10.965a19.805 19.805 0 012.698-1.013z" fill="url(#paint5_linear_915_37827)"/><path d="M75.533 3.271l4.98 12.68c-.697.371-1.78.934-2.697 1.375l-4.084-10.92-4.986 13.328h-3.282L71.93 3.27h3.603z" fill="url(#paint6_linear_915_37827)"/><path d="M75.533 3.271l4.98 12.68c-.697.371-1.78.934-2.697 1.375l-4.084-10.92-4.986 13.328h-3.282L71.93 3.27h3.603z" fill="url(#paint7_linear_915_37827)"/><path d="M49.703 19.734h2.66V7.986l8.588 11.748h2.79V3.27h-2.888V14.7L52.437 3.27h-2.962v16.392l.228.07z" fill="url(#paint8_linear_915_37827)"/><path d="M49.703 19.734h2.66V7.986l8.588 11.748h2.79V3.27h-2.888V14.7L52.437 3.27h-2.962v16.392l.228.07z" fill="url(#paint9_linear_915_37827)"/><path d="M39.612 15.99V3.271h-2.888V14.97c.96.322 1.92.664 2.888 1.021z" fill="url(#paint10_linear_915_37827)"/><path d="M39.612 15.99V3.271h-2.888V14.97c.96.322 1.92.664 2.888 1.021z" fill="url(#paint11_linear_915_37827)"/><path d="M25.745 29.68c-.826 0-1.514-.264-2.065-.793-.55-.534-.825-1.22-.825-2.056 0-.837.275-1.52.825-2.049.551-.534 1.24-.801 2.065-.801.958 0 1.696.413 2.214 1.239l-.826.421a1.598 1.598 0 00-.586-.578 1.53 1.53 0 00-.802-.223c-.545 0-.999.187-1.363.562-.357.374-.536.85-.536 1.429 0 .578.179 1.054.537 1.428.363.375.817.562 1.362.562.292 0 .562-.074.81-.223.248-.148.44-.341.578-.578l.826.421c-.529.826-1.267 1.24-2.214 1.24zm9.101-.099h-1.099l-.405-1.057h-2.527l-.405 1.057h-1.098l2.164-5.51h1.206l2.164 5.51zm-1.776-1.908l-.991-2.626-.992 2.626h1.983zm5.378 2.007c-.947 0-1.694-.292-2.239-.875l.537-.744c.474.507 1.055.76 1.743.76.369 0 .644-.074.826-.223.187-.148.28-.325.28-.528 0-.21-.11-.375-.33-.496a2.9 2.9 0 00-.8-.297 12.429 12.429 0 01-.95-.257 1.825 1.825 0 01-.802-.503c-.22-.237-.33-.543-.33-.917 0-.463.184-.845.553-1.148.374-.309.86-.463 1.454-.463.848 0 1.536.256 2.065.768l-.554.719c-.418-.418-.95-.628-1.594-.628-.286 0-.515.064-.685.19a.582.582 0 00-.248.496.43.43 0 00.173.347c.122.093.276.17.463.231.187.055.394.11.62.165.23.055.46.124.685.207.231.077.44.173.628.289a1.396 1.396 0 01.636 1.206c0 .495-.18.903-.537 1.222-.358.32-.89.48-1.594.48zm5.185-.099h-.967v-5.51h.967v5.51zm7.143 0h-.934l-2.874-3.932v3.932H46v-5.51h.992l2.816 3.825v-3.824h.967v5.51zm6.96-.702c-.528.534-1.203.801-2.023.801-.82 0-1.495-.267-2.024-.801-.529-.54-.793-1.223-.793-2.048 0-.826.264-1.506.793-2.04.529-.54 1.203-.81 2.024-.81.82 0 1.495.27 2.023.81.529.534.793 1.214.793 2.04 0 .826-.264 1.508-.793 2.048zm-2.023-.058c.545 0 .985-.187 1.321-.562.336-.38.504-.856.504-1.428 0-.579-.168-1.055-.504-1.43-.336-.374-.776-.561-1.321-.561-.55 0-.994.187-1.33.562-.33.374-.496.85-.496 1.429 0 .578.166 1.054.496 1.428.336.375.78.562 1.33.562z" fill="#fff"/><defs><linearGradient id="paint0_linear_915_37827" x1="40.284" y1="3" x2="40.284" y2="19.734" gradientUnits="userSpaceOnUse"><stop stop-color="#4882D2"/><stop offset="1" stop-color="#56E6FD"/></linearGradient><linearGradient id="paint1_linear_915_37827" x1="40.257" y1="3" x2="40.257" y2="19.734" gradientUnits="userSpaceOnUse"><stop stop-color="#009EDA"/><stop offset="1" stop-color="#56E6FD"/></linearGradient><linearGradient id="paint2_linear_915_37827" x1="40.284" y1="3" x2="40.284" y2="19.734" gradientUnits="userSpaceOnUse"><stop stop-color="#4882D2"/><stop offset="1" stop-color="#56E6FD"/></linearGradient><linearGradient id="paint3_linear_915_37827" x1="40.257" y1="3" x2="40.257" y2="19.734" gradientUnits="userSpaceOnUse"><stop stop-color="#009EDA"/><stop offset="1" stop-color="#56E6FD"/></linearGradient><linearGradient id="paint4_linear_915_37827" x1="40.284" y1="3" x2="40.284" y2="19.734" gradientUnits="userSpaceOnUse"><stop stop-color="#4882D2"/><stop offset="1" stop-color="#56E6FD"/></linearGradient><linearGradient id="paint5_linear_915_37827" x1="40.257" y1="3" x2="40.257" y2="19.734" gradientUnits="userSpaceOnUse"><stop stop-color="#009EDA"/><stop offset="1" stop-color="#56E6FD"/></linearGradient><linearGradient id="paint6_linear_915_37827" x1="40.284" y1="3" x2="40.284" y2="19.734" gradientUnits="userSpaceOnUse"><stop stop-color="#4882D2"/><stop offset="1" stop-color="#56E6FD"/></linearGradient><linearGradient id="paint7_linear_915_37827" x1="40.257" y1="3" x2="40.257" y2="19.734" gradientUnits="userSpaceOnUse"><stop stop-color="#009EDA"/><stop offset="1" stop-color="#56E6FD"/></linearGradient><linearGradient id="paint8_linear_915_37827" x1="40.284" y1="3" x2="40.284" y2="19.734" gradientUnits="userSpaceOnUse"><stop stop-color="#4882D2"/><stop offset="1" stop-color="#56E6FD"/></linearGradient><linearGradient id="paint9_linear_915_37827" x1="40.257" y1="3" x2="40.257" y2="19.734" gradientUnits="userSpaceOnUse"><stop stop-color="#009EDA"/><stop offset="1" stop-color="#56E6FD"/></linearGradient><linearGradient id="paint10_linear_915_37827" x1="40.284" y1="3" x2="40.284" y2="19.734" gradientUnits="userSpaceOnUse"><stop stop-color="#4882D2"/><stop offset="1" stop-color="#56E6FD"/></linearGradient><linearGradient id="paint11_linear_915_37827" x1="40.257" y1="3" x2="40.257" y2="19.734" gradientUnits="userSpaceOnUse"><stop stop-color="#009EDA"/><stop offset="1" stop-color="#56E6FD"/></linearGradient></defs></svg>