<svg xmlns="http://www.w3.org/2000/svg" viewBox="0 0 98.4 52.126"><linearGradient id="a" gradientUnits="userSpaceOnUse" x1="13.12" y1="139.127" x2="13.12" y2="177.527" gradientTransform="matrix(1 0 0 -1 0 177.528)"><stop offset="0" stop-color="#f0c788"/><stop offset=".25" stop-color="#e5c18b"/><stop offset=".5" stop-color="#aca498"/><stop offset=".75" stop-color="#d6cdc3"/><stop offset="1" stop-color="#e6e6e6"/></linearGradient><path d="M.4.001h12.8c1.4 0 2.7.2 4 .6 1.6.5 3 1.3 4.2 2.4 1.3 1.1 2.4 2.4 3.2 3.9.7 1.2 1.1 2.5 1.4 3.9s.3 2.9.1 4.3c-.2 2-.9 3.9-2 5.6-1.2 1.8-2.7 3.3-4.6 4.4-.5.3-1 .5-1.5.7-.2.1-.1.2-.1.3.4.7.9 1.3 1.3 2 .8 1.2 1.7 2.5 2.5 3.7 1.2 1.8 2.4 3.5 3.6 5.3l.6.9c0 .1.1.1 0 .2 0 0-.1.1-.2.1h-8.1c-.5 0-.8-.2-1.1-.6-2-3-4-6-6.1-9-.9-1.4-1.9-2.8-2.8-4.2l-.2-.2v13.8c0 .2-.1.3-.3.3H0c.4-12.9.4-25.6.4-38.4zm7.4 7.7v11.1c0 .4 0 .4.4.4h5.3c.4 0 .7 0 1.1-.1 1.9-.5 3.3-1.7 4-3.6.5-1.5.5-3-.1-4.4-1.1-2.2-2.8-3.4-5.2-3.4H7.8z" fill="url(#a)"/><linearGradient id="b" gradientUnits="userSpaceOnUse" x1="83.6" y1="139.227" x2="83.6" y2="177.527" gradientTransform="matrix(1 0 0 -1 0 177.528)"><stop offset="0" stop-color="#f0c788"/><stop offset=".25" stop-color="#e5c18b"/><stop offset=".5" stop-color="#aca498"/><stop offset=".75" stop-color="#d6cdc3"/><stop offset="1" stop-color="#e6e6e6"/></linearGradient><path d="M98.4 38.301h-8.2c-.2 0-.4-.1-.5-.3l-4.2-7.5-1.8-3.3c-.1-.1-.1-.2-.2-.3-.4.6-.7 1.2-1 1.8-.9 1.7-1.8 3.3-2.8 5-.6 1.1-1.2 2.1-1.7 3.2-.2.4-.4.7-.6 1.1-.1.2-.3.3-.5.3h-8.1c.2-.3.3-.6.4-.8 1.1-1.9 2.1-3.8 3.2-5.7 1-1.9 2.1-3.8 3.1-5.7 1.2-2.2 2.4-4.3 3.6-6.5.1-.3.2-.5 0-.8-1.4-2.4-2.7-4.9-4.1-7.4-1.7-3.2-3.5-6.3-5.2-9.5-.3-.6-.7-1.2-1-1.8v-.1H77c.2 0 .3.1.4.3.8 1.4 1.6 2.9 2.4 4.3.9 1.6 1.7 3.1 2.6 4.7.4.7.7 1.3 1.1 2 .1-.1.2-.2.2-.3 1.4-2.6 2.9-5.2 4.3-7.8.6-1 1.2-2.1 1.7-3.1.1-.1.3-.1.5-.1h8.2v.2c-.1.1-.2.1-.2.2-.7 1.2-1.3 2.4-2 3.5-1 1.9-2.1 3.7-3.1 5.6-1 1.7-1.9 3.5-2.9 5.2-.8 1.4-1.5 2.8-2.3 4.1-.1.2-.1.3 0 .5.6 1.1 1.2 2.1 1.8 3.2 1.3 2.4 2.7 4.8 4 7.2s2.7 4.8 4 7.2c.2.6.5.9.7 1.4 0-.1 0-.1 0 0z" fill="url(#b)"/><linearGradient id="c" gradientUnits="userSpaceOnUse" x1="48.35" y1="139.219" x2="48.35" y2="177.528" gradientTransform="matrix(1 0 0 -1 0 177.528)"><stop offset="0" stop-color="#f0c788"/><stop offset=".25" stop-color="#e5c18b"/><stop offset=".5" stop-color="#aca498"/><stop offset=".75" stop-color="#d6cdc3"/><stop offset="1" stop-color="#e6e6e6"/></linearGradient><path d="M48.3 38.301c-10 .3-18.6-8.7-18.6-19.1S38.2.101 48.2.001c10.1-.1 18.7 8.7 18.8 19.1 0 10.4-8.6 19.5-18.7 19.2zm-14.2-23.9c-.1.1-.1.1 0 0 0 .2.1.2.2.3.5.4 1 .7 1.4 1.1 1.7 1.3 3.4 2.5 5.1 3.8.7.5 1.4 1 2 1.5.1.1.3.2.2.4-.1.4-.3.8-.4 1.2-.4 1.2-.8 2.5-1.2 3.7-.6 1.9-1.2 3.7-1.8 5.6v.2c.1-.1.2-.1.3-.2.4-.3.8-.6 1.1-.8 1.6-1.2 3.3-2.4 4.9-3.7.9-.7 1.7-1.3 2.6-2 .1-.1.3 0 .4 0 1 .8 2 1.5 3.1 2.3 1.9 1.4 3.7 2.8 5.6 4.2 0 0 .1 0 .2.1v-.1c-.4-1.4-.9-2.7-1.3-4.1-.3-1.1-.7-2.2-1-3.3-.3-1-.6-2.1-1-3.1-.1-.3-.1-.4.2-.6.9-.6 1.7-1.3 2.6-1.9 2-1.5 3.9-3 5.9-4.4.1-.1.1-.2.2-.3H52.5c-.1 0-.3-.1-.3-.2-.2-.6-.4-1.1-.6-1.7-.3-.9-.6-1.8-.8-2.7-.3-1.1-.7-2.1-1-3.2-.3-1-.6-2-.9-3.1 0 0 0-.1-.1-.1-.2.5-.3 1-.5 1.4-.3.9-.6 1.8-.8 2.7-.3 1-.7 2.1-1 3.1-.4 1.1-.7 2.2-1 3.4-.1.3-.3.4-.6.4H34.8c-.3.2-.5.1-.7.1z" fill="url(#c)"/><path d="M57.8 46.901v4.6c0 .3-.1.5-.4.5-1 0-.9.2-.9-.9v-6.9c0-.5 0-.5.5-.6.6-.1.9.3 1.1.7.7 1.4 1.4 2.9 2.2 4.3l.2.2v-4.7c0-.3.1-.4.4-.4 1 0 1-.2 1 1v6.8c0 .5 0 .5-.5.6s-.8-.1-1-.6c-.7-1.4-1.4-2.8-2.2-4.3-.2-.2-.3-.3-.4-.3zm7.5.9v-2.3c.1-1.5 1.9-2.3 3.1-1.9 1.3.4 1.8 1.6 1.8 2.7v3.3c0 1.2-.7 2.1-1.8 2.3-1.6.4-3.1-.5-3.1-2.2v-1.9zm3.5 0v-1.9c0-.9-.9-1.4-1.6-1-.5.2-.7.7-.7 1.2v3.1c0 .2.1.4.1.6.2.7.8.9 1.2.8.6-.1 1-.6 1-1.2v-1.6zm-29.5 4.1h-.4c-.2 0-.4-.1-.4-.3-.1-.4-.2-.7-.3-1.1-.1-.3-.2-.4-.6-.4h-1.4c-.3 0-.4.1-.5.4-.1.4-.2.8-.4 1.2 0 .1-.2.2-.4.3h-.7c-.3 0-.3-.1-.3-.3.4-1.5.9-3 1.3-4.5.3-1 .5-2 .8-3 .1-.3.1-.6.5-.6.9 0 .9 0 1.1.5.5 1.6.9 3.2 1.4 4.8.2.9.5 1.8.7 2.6.1.3 0 .4-.3.4h-.1zm-2.3-6.4c-.1.1-.1.1-.1.2-.2.9-.4 1.9-.6 2.8-.1.2 0 .3.3.3h1.1c.1 0 .2-.2.2-.3-.2-.9-.4-1.9-.6-2.8-.2 0-.3 0-.3-.2zm8.3 6.5c-1 0-1.8-.4-2.4-1.1-.2-.2-.2-.3 0-.5s.5-.5.7-.5.4.3.6.5c.6.5 1.7.5 2.1-.2.3-.6.1-1.3-.5-1.6-.6-.2-1.2-.4-1.7-.7-.7-.4-1.2-.9-1.2-1.8s.2-1.7 1-2.2c1.2-.7 2.6-.4 3.5.4.2.2.2.4 0 .6 0 .1-.1.1-.2.2-.3.4-.5.4-.9 0-.4-.3-.8-.5-1.4-.3-.4.1-.6.4-.7.8s.1.7.4.9c.4.2.9.4 1.4.6.3.1.6.2.8.4 1 .6 1.2 1.8 1 2.7-.3 1.1-1.1 1.8-2.2 1.8h-.3zm-17.5-4.3c0 .7 0 1.3.1 2 0 .5.3.7.8.8.4.1.9 0 1.1-.3.3-.5.6-.5 1.1-.3.4.2.5.3.3.7-.5 1-1.6 1.5-2.7 1.2-1.1-.2-1.9-1.1-1.9-2.3v-3.8c0-1.8 1.6-2.7 3-2.4.8.2 1.3.7 1.7 1.4.1.2.1.4-.2.5-.1 0-.2.1-.3.1-.3.1-.6.2-.8-.2-.4-.7-1.3-.7-1.8-.1-.2.2-.2.6-.3.9-.1.7-.1 1.3-.1 1.8zm24.8.1v3.7c0 .4-.1.5-.5.4-.9-.1-.9 0-.9-1v-7c0-.5 0-.5.5-.5.8 0 .8 0 .8.9.1 1.2.1 2.3.1 3.5z" fill="#eac28a"/></svg>