<svg xmlns="http://www.w3.org/2000/svg" width="234.779" height="65.783" viewBox="0 0 186.9 52.37" shape-rendering="geometricPrecision" text-rendering="geometricPrecision" image-rendering="optimizeQuality" fill-rule="evenodd" clip-rule="evenodd"><g fill-rule="nonzero"><path d="M117.07 15.95v-3.54c0-3.23 1.83-5.74 5.83-5.74 2.54 0 4.19 1.18 4.19 1.89 0 .37-.31.74-.71.74-.53 0-1.09-1.21-3.45-1.21-2.82 0-4.34 1.65-4.34 4.31v3.54c0 2.67 1.49 4.31 4.38 4.31 2.51 0 3.04-1.24 3.63-1.24.37 0 .68.4.68.74 0 .74-1.68 1.92-4.38 1.92-3.97 0-5.83-2.45-5.83-5.74zm21.01-1.27h-1.52c-3.04 0-5.87.28-5.87 2.86 0 1.92 1.3 2.79 2.98 2.79 2.17 0 4.41-1.99 4.41-3.35v-2.3zm1.52-2.05v8.19c0 .37-.31.68-.75.68-.4 0-.74-.31-.74-.68v-1.49c-1.06 1.21-2.61 2.36-4.66 2.36-2.39 0-4.28-1.3-4.28-4.1 0-3.32 2.92-4.16 7.23-4.16h1.68v-.81c0-2.17-1.09-4.56-3.91-4.56-1.99 0-2.82.87-3.26.87-.43 0-.68-.53-.68-.84 0-.68 2.08-1.43 4-1.43 3.97 0 5.37 2.89 5.37 5.96zm11.11 5.31c0-4.5-7.73-2.02-7.73-7.17 0-1.89 1.37-4.1 4.72-4.1 1.92 0 3.97.71 3.97 1.4 0 .28-.31.81-.68.81-.43 0-1.4-.84-3.26-.84-2.45 0-3.32 1.55-3.32 2.7 0 3.85 7.76 1.43 7.76 7.11 0 2.39-1.77 3.85-4.84 3.85-2.86 0-4.69-1.27-4.69-2.11 0-.31.28-.71.56-.71.62 0 1.24 1.46 4.1 1.46 2.48 0 3.41-1.12 3.41-2.39zm6.15-10.46v13.35c0 .34-.34.68-.78.68-.43 0-.74-.34-.74-.68V7.48c0-.37.31-.62.74-.62.44 0 .78.25.78.62zm.37-6.39c0 .62-.53 1.15-1.15 1.15-.68 0-1.18-.53-1.18-1.15 0-.59.5-1.09 1.18-1.09.62 0 1.15.5 1.15 1.09zm5.24 19.74c0 .34-.34.68-.78.68s-.75-.34-.75-.68V7.48c0-.37.31-.62.75-.62.4 0 .74.25.74.62v1.55c.65-1.21 2.08-2.36 4.16-2.36 3.01 0 5.56 2.55 5.56 5.68v8.47c0 .47-.4.68-.78.68-.37 0-.74-.22-.74-.68v-8.47c0-2.14-1.89-4.25-4.16-4.25-1.99 0-4 1.58-4 4.25v8.47zm22.91-8.48c0-2.14-1.86-4.25-4.19-4.25s-4.16 2.11-4.16 4.25v3.6c0 2.2 1.83 4.31 4.16 4.31 2.3 0 4.19-2.11 4.19-4.31v-3.6zm1.52 0v3.6c0 3.01-2.67 5.74-5.71 5.74s-5.68-2.7-5.68-5.74v-3.6c0-3.04 2.58-5.68 5.68-5.68 3.04 0 5.71 2.55 5.71 5.68zM8.94 15.03c0-2.89 2.47-4.63 6.8-4.63 2.89 0 4.58.75 5.85 1.39.21.13.42.25.66.33.4.15.83.24 1.28.24 1.97 0 3.57-1.6 3.57-3.57a3.547 3.547 0 00-1.75-3.07c-2.55-1.59-7.13-2-9.6-2-6.92 0-14.62 3.07-14.62 12.03 0 14.26 19.31 11.49 19.31 20.51 0 3.61-3.13 5.23-6.74 5.23-3.77 0-5.84-1.75-7.45-3.1-.18-.18-.37-.34-.58-.48a3.654 3.654 0 00-4.78.65C.34 39.2 0 40.03 0 40.94c0 .62.15 1.2.42 1.71 1.45 3.01 6.8 5.88 13.51 5.88 8.3 0 14.32-4.45 14.32-13.05 0-15.58-19.31-12.99-19.31-20.45zm103 29.53c0-1.89-1.54-3.43-3.43-3.43H94.92V7.92a3.91 3.91 0 10-7.82 0v36.15c0 1.41.74 2.64 1.86 3.33.48.36 1.03.58 1.57.58h17.99a3.43 3.43 0 003.43-3.43z" fill="#fff"/><path d="M56.52 11.9c-7.88 0-14.28 6.41-14.28 14.28 0 7.88 6.41 14.28 14.28 14.28 7.88 0 14.28-6.41 14.28-14.28 0-7.88-6.41-14.28-14.28-14.28zm0 29.09c-8.16 0-14.8-6.64-14.8-14.8s6.64-14.8 14.8-14.8 14.8 6.64 14.8 14.8-6.64 14.8-14.8 14.8zm2.3-35.45h-.08a20.455 20.455 0 00-4.42 0h-.08c-.26 0-.51-.13-.65-.36a.781.781 0 01-.02-.82L55.86.39a.79.79 0 011.36 0l2.29 3.97c.15.25.14.57-.02.82-.15.22-.39.36-.65.36zm-2.3 46.83a.79.79 0 01-.68-.39l-2.29-3.97a.782.782 0 01.02-.82c.14-.22.39-.36.65-.36h.08a20.455 20.455 0 004.42 0h.08c.26 0 .51.13.65.36.16.25.17.56.02.82l-2.29 3.97a.79.79 0 01-.68.39zm21.43-23.11c-.15 0-.3-.04-.43-.13a.772.772 0 01-.35-.74 20.455 20.455 0 000-4.42c-.03-.29.1-.58.35-.74.13-.08.28-.13.43-.13.13 0 .27.04.39.11l3.97 2.29a.79.79 0 010 1.36l-3.97 2.29c-.12.07-.26.1-.39.1zm-42.86 0c-.13 0-.27-.03-.39-.1l-3.97-2.29a.79.79 0 010-1.36l3.97-2.29c.12-.07.26-.11.39-.11.15 0 .3.04.43.13.25.16.38.44.35.74a20.455 20.455 0 000 4.42c.03.29-.1.58-.35.74-.13.08-.28.13-.43.13zM73.3 13.43c-.23 0-.46-.1-.61-.29a21.05 21.05 0 00-3.13-3.13.774.774 0 01-.27-.77c.06-.29.28-.52.56-.59l4.43-1.19c.07-.02.14-.03.2-.03a.78.78 0 01.75.98l-1.19 4.43a.782.782 0 01-.75.58zm-34.74 31.5a.78.78 0 01-.75-.98L39 39.52a.798.798 0 01.75-.58c.23 0 .46.1.61.29.93 1.15 1.98 2.2 3.13 3.13.23.18.33.48.27.77-.06.29-.28.52-.56.59l-4.43 1.19c-.07.02-.13.03-.2.03zm35.93 0c-.07 0-.14-.01-.2-.03l-4.43-1.19a.781.781 0 01-.29-1.36c1.15-.93 2.2-1.98 3.13-3.13a.763.763 0 01.77-.27c.29.06.52.28.59.56l1.19 4.43c.07.27 0 .56-.2.75a.78.78 0 01-.55.23zm-34.74-31.5c-.05 0-.11-.01-.16-.02a.767.767 0 01-.59-.56l-1.19-4.43a.78.78 0 01.75-.98c.07 0 .14.01.2.03l4.43 1.19c.28.08.5.31.56.59.06.29-.04.59-.27.77-1.15.93-2.2 1.98-3.13 3.13-.15.19-.37.29-.61.29zm6.45-5.39a.783.783 0 01-.77-.89l.6-4.55a.79.79 0 011.26-.52l3.64 2.79c.23.18.35.47.29.76-.05.29-.27.52-.55.61-1.41.41-2.79.98-4.08 1.69-.12.06-.25.1-.37.1zm20.05 42.39c-.17 0-.34-.06-.48-.16l-3.64-2.79a.77.77 0 01-.29-.76c.05-.29.27-.52.55-.61 1.41-.41 2.78-.98 4.08-1.69.12-.06.25-.1.37-.1a.783.783 0 01.77.89l-.6 4.55a.79.79 0 01-.78.68zM77.2 20.88c-.05 0-.1 0-.14-.01a.795.795 0 01-.61-.55c-.41-1.41-.98-2.79-1.69-4.08a.783.783 0 01.68-1.16c.03 0 .07 0 .1.01l4.54.6c.28.04.51.22.62.48.11.26.07.55-.1.77l-2.79 3.64c-.15.19-.38.31-.62.31zm-39.6 16.4c-.03 0-.07 0-.1-.01l-4.55-.6a.79.79 0 01-.62-.48.764.764 0 01.1-.77l2.79-3.64a.801.801 0 01.76-.3c.29.05.52.27.61.55.41 1.41.98 2.79 1.69 4.08a.783.783 0 01-.68 1.16zM66.84 8.04c-.13 0-.26-.03-.37-.1-1.29-.71-2.67-1.28-4.08-1.69a.797.797 0 01-.55-.61.79.79 0 01.29-.76l3.64-2.79a.77.77 0 01.48-.16.79.79 0 01.78.68l.6 4.55c.04.29-.09.58-.33.75-.13.09-.29.14-.44.14zM46.8 50.43a.79.79 0 01-.78-.68l-.6-4.55c-.04-.29.09-.58.33-.75.13-.09.29-.14.44-.14.13 0 .26.03.37.1 1.29.71 2.67 1.28 4.08 1.69.28.08.49.32.55.61a.79.79 0 01-.29.76l-3.64 2.79a.77.77 0 01-.48.16zm28.65-13.15a.782.782 0 01-.68-1.16c.71-1.29 1.28-2.67 1.69-4.08.08-.28.32-.49.61-.55.05-.01.1-.01.14-.01.24 0 .47.11.62.31l2.79 3.64c.17.22.21.52.1.77a.79.79 0 01-.62.48l-4.55.6c-.03 0-.07.01-.1.01zm-39.6-16.4c-.24 0-.47-.11-.62-.31l-2.79-3.64a.767.767 0 01-.1-.77.79.79 0 01.62-.48l4.55-.6c.03 0 .07-.01.1-.01a.782.782 0 01.68 1.16c-.71 1.29-1.28 2.67-1.69 4.08-.08.28-.32.49-.61.55-.05.01-.1.01-.14.01z" fill="#ff9d00"/></g></svg>