<svg width="50" height="50" fill="none" xmlns="http://www.w3.org/2000/svg"><path d="M25 12.181a12.8 12.8 0 00-12.819 12.82 12.8 12.8 0 0012.82 12.818A12.8 12.8 0 0037.818 25 12.8 12.8 0 0025 12.181zm0 21.15c-4.587 0-8.331-3.743-8.331-8.33 0-4.588 3.744-8.332 8.331-8.332 4.588 0 8.331 3.744 8.331 8.331 0 4.588-3.743 8.331-8.33 8.331zM38.344 8.67a2.99 2.99 0 00-2.994 2.994 2.99 2.99 0 002.994 2.993 2.986 2.986 0 002.994-2.993 2.993 2.993 0 00-2.994-2.994zM49.988 25c0-3.45.03-6.869-.163-10.312-.194-4-1.106-7.55-4.031-10.475C42.863 1.28 39.319.375 35.319.18 31.869-.012 28.45.02 25.006.02c-3.45 0-6.868-.031-10.312.162-4 .194-7.55 1.107-10.475 4.032C1.288 7.144.38 10.688.188 14.688-.006 18.138.025 21.556.025 25c0 3.444-.031 6.869.163 10.313.193 4 1.106 7.55 4.03 10.475 2.932 2.93 6.476 3.837 10.476 4.03 3.45.195 6.868.163 10.312.163 3.45 0 6.87.032 10.313-.162 4-.194 7.55-1.106 10.475-4.031 2.931-2.932 3.837-6.475 4.031-10.475.2-3.444.163-6.863.163-10.313zm-5.5 14.738c-.457 1.137-1.007 1.987-1.888 2.862-.881.881-1.725 1.431-2.862 1.888C36.45 45.794 28.644 45.5 25 45.5s-11.456.294-14.744-1.006c-1.137-.456-1.987-1.006-2.862-1.888-.881-.88-1.431-1.724-1.888-2.862C4.206 36.45 4.5 28.644 4.5 25s-.294-11.456 1.006-14.744C5.963 9.12 6.513 8.27 7.394 7.394s1.725-1.431 2.862-1.888C13.544 4.206 21.356 4.5 25 4.5s11.456-.294 14.744 1.006c1.137.457 1.987 1.007 2.862 1.888.882.881 1.432 1.725 1.888 2.862 1.3 3.288 1.006 11.1 1.006 14.744s.294 11.45-1.012 14.738z" fill="#000"/></svg>