<svg width="48" height="48" fill="none" xmlns="http://www.w3.org/2000/svg"><path fill-rule="evenodd" clip-rule="evenodd" d="M14.47 37.323c.951.502 2.01.763 3.084.763 3.58 0 6.502-2.847 6.634-6.396L24.2 0h7.907c0 .673.063 1.345.187 2.006h-5.79v.001h7.908a10.952 10.952 0 002.706 7.212l.002.003a10.93 10.93 0 005.988 1.78v1.76c.744.16 1.514.245 2.305.245v7.908a18.806 18.806 0 01-11.001-3.537v16.069C34.413 41.47 27.883 48 19.859 48a14.512 14.512 0 01-10.642-4.642l-.003-.002C5.46 40.721 3 36.363 3 31.44c0-8.025 6.53-14.555 14.554-14.555.657.003 1.312.05 1.962.143V18.9c.045 0 .09-.002.136-.004.069-.002.137-.005.207-.005.656.003 1.311.051 1.96.143v8.073a6.53 6.53 0 00-1.96-.308 6.655 6.655 0 00-6.647 6.648c0 1.392.44 2.748 1.257 3.875l.002.001zM6.265 38.64z" fill="#000"/></svg>