<svg width="72" height="42" fill="none" xmlns="http://www.w3.org/2000/svg"><path fill-rule="evenodd" clip-rule="evenodd" d="M70.349 2.844c.498-1.638 0-2.844-2.385-2.844h-7.875c-2.004 0-2.928 1.041-3.43 2.19 0 0-4.004 9.588-9.677 15.816-1.836 1.806-2.67 2.379-3.672 2.379-.5 0-1.254-.573-1.254-2.214V2.844C42.056.876 41.504 0 39.836 0H27.452c-1.25 0-2.004.912-2.004 1.779 0 1.863 2.838 2.295 3.13 7.539v11.394c0 2.499-.46 2.952-1.462 2.952-2.67 0-9.164-9.633-13.02-20.655C13.35.864 12.595 0 10.582 0H2.7C.45 0 0 1.041 0 2.19 0 4.236 2.67 14.4 12.435 27.843 18.945 37.023 28.109 42 36.458 42c5.007 0 5.625-1.104 5.625-3.009v-6.939c0-2.211.474-2.652 2.061-2.652 1.17 0 3.171.576 7.845 5.001C57.329 39.648 58.208 42 61.214 42h7.875c2.25 0 3.377-1.104 2.73-3.288-.715-2.172-3.264-5.325-6.645-9.066-1.836-2.13-4.59-4.425-5.427-5.574-1.167-1.473-.834-2.13 0-3.441 0 0 9.6-13.278 10.599-17.787h.002z" fill="#000"/></svg>