<svg width="60" height="44" fill="none" xmlns="http://www.w3.org/2000/svg"><path d="M60 21.81c0-.149 0-.318-.007-.514-.006-.549-.02-1.165-.033-1.822a103.837 103.837 0 00-.295-5.545c-.2-2.445-.495-4.483-.897-6.013a9.472 9.472 0 00-2.41-4.224 9.32 9.32 0 00-4.173-2.446C50.29.73 46.58.413 41.357.216a311.463 311.463 0 00-7.801-.189C32.625.014 31.76.007 30.984 0h-1.968c-.777.007-1.641.014-2.572.027-2.658.034-5.317.095-7.801.19C13.42.42 9.703.738 7.815 1.246A9.308 9.308 0 003.64 3.69a9.461 9.461 0 00-2.409 4.226c-.408 1.53-.696 3.568-.897 6.013a103.086 103.086 0 00-.295 5.545c-.02.657-.027 1.273-.033 1.822 0 .196-.007.365-.007.514v.38c0 .149 0 .318.007.514.006.549.02 1.165.033 1.822a102.8 102.8 0 00.295 5.545c.2 2.445.495 4.483.897 6.013.857 3.244 3.375 5.803 6.583 6.67 1.888.515 5.605.833 10.828 1.03 2.484.094 5.143.155 7.801.189.931.014 1.795.02 2.572.027h1.968c.777-.007 1.641-.014 2.572-.027 2.658-.034 5.317-.095 7.801-.19 5.223-.203 8.94-.521 10.828-1.029 3.208-.867 5.726-3.42 6.583-6.67.408-1.53.696-3.568.897-6.013a102.8 102.8 0 00.328-7.367c0-.196.007-.365.007-.514v-.38zm-4.821.353c0 .142 0 .297-.007.48-.007.528-.02 1.11-.034 1.74a92.518 92.518 0 01-.28 5.275c-.182 2.18-.436 3.968-.75 5.167-.416 1.564-1.635 2.803-3.175 3.216-1.406.38-4.949.684-9.763.867a301.052 301.052 0 01-10.212.21h-1.916l-2.53-.02a301.822 301.822 0 01-7.682-.19c-4.814-.19-8.363-.488-9.763-.867a4.543 4.543 0 01-3.174-3.216c-.315-1.199-.57-2.986-.75-5.167a99.155 99.155 0 01-.281-5.274c-.02-.63-.027-1.22-.034-1.74 0-.184-.007-.346-.007-.481v-.326c0-.142 0-.297.007-.48.007-.528.02-1.11.034-1.74.046-1.802.14-3.603.28-5.275.182-2.18.436-3.968.75-5.167.416-1.564 1.635-2.803 3.175-3.216 1.406-.38 4.949-.684 9.763-.867a300.868 300.868 0 0110.212-.21h1.916l2.53.02c2.62.034 5.237.095 7.682.19 4.814.19 8.363.488 9.763.867a4.543 4.543 0 013.174 3.216c.315 1.199.57 2.986.75 5.167.14 1.672.228 3.473.281 5.274.02.63.027 1.22.034 1.74 0 .183.007.346.007.481v.326zm-31.139 8.91l15.536-9.14-15.536-9.007v18.148z" fill="#000"/></svg>