<svg width="93" height="20" fill="none" xmlns="http://www.w3.org/2000/svg"><path fill-rule="evenodd" clip-rule="evenodd" d="M82.065 17.736A7.735 7.735 0 0089.8 10a7.735 7.735 0 10-7.735 7.736zm0 2.264c5.522 0 9.999-4.477 9.999-10S87.587 0 82.065 0s-9.998 4.477-9.998 10 4.476 10 9.998 10zM67.35 2.264H56.688L55.178 0h16.7L58.86 17.736h10.28L70.647 20H53.955L67.35 2.264zM32.448 0H17.356v20h16.601l-1.509-2.264H19.62v-6.793h9.433V8.68H19.62V2.264h11.32L32.449 0zM0 0h2.264v17.736h12.829L13.583 20H0V0z" fill="#fff"/><path fill-rule="evenodd" clip-rule="evenodd" d="M43.956 20c5.522 0 9.999-4.477 9.999-10 0-.19-.006-.379-.016-.566h-1.494l-.566.755h-.19A7.735 7.735 0 0136.22 10a7.735 7.735 0 0113.883-4.695l1.794-1.381A9.982 9.982 0 0043.956 0c-5.522 0-9.999 4.477-9.999 10s4.477 10 9.999 10z" fill="url(#paint0_radial_1688_32301)"/><path d="M43.767 8.68h10.188v1.13l-.566 1.132h-9.622V8.68z" fill="url(#paint1_radial_1688_32301)"/><path d="M46.031 9.811a1.887 1.887 0 11-3.773 0 1.887 1.887 0 013.773 0z" fill="url(#paint2_radial_1688_32301)"/><defs><radialGradient id="paint0_radial_1688_32301" cx="0" cy="0" r="1" gradientUnits="userSpaceOnUse" gradientTransform="rotate(180 26.715 5) scale(19.316)"><stop stop-color="#3968F3"/><stop offset="1" stop-color="#64AFFD"/></radialGradient><radialGradient id="paint1_radial_1688_32301" cx="0" cy="0" r="1" gradientUnits="userSpaceOnUse" gradientTransform="rotate(180 26.715 5) scale(19.316)"><stop stop-color="#3968F3"/><stop offset="1" stop-color="#64AFFD"/></radialGradient><radialGradient id="paint2_radial_1688_32301" cx="0" cy="0" r="1" gradientUnits="userSpaceOnUse" gradientTransform="rotate(180 26.715 5) scale(19.316)"><stop stop-color="#3968F3"/><stop offset="1" stop-color="#64AFFD"/></radialGradient></defs></svg>