<svg xmlns="http://www.w3.org/2000/svg" width="151.6" height="71.7"><path d="M109 47.1h15.8c1.5-5.6 3.1-11.3 4.6-16.9s3.1-11.3 4.6-16.9h13.9c1.2-4.4 2.4-8.9 3.7-13.3H108c-1.2 4.4-2.4 8.9-3.7 13.3h13.9c-1.6 5.6-3.1 11.3-4.7 16.9s-3 11.3-4.5 16.9zM10.9 43c-2.5-3.4-2.8-7.6-1.1-13.7h15.3c-.9 3.3.2 5.5 2.9 5.5 2.6 0 5-2.2 5.9-5.5 1.3-4.9 2.7-9.8 4-14.6 1.3-4.9 2.7-9.8 4-14.7h15.3c-1.3 4.8-2.7 9.7-4 14.5-1.3 4.8-2.7 9.7-4 14.5-1.7 6.2-4.2 10.5-8.7 14-8.9 6.9-24.5 7-29.6 0zm38.7 4.1h40.6c1.2-4.3 2.4-8.6 3.5-12.9H68.6c.5-1.7.9-3.4 1.4-5.1h23c1-3.8 2.1-7.6 3.1-11.4h-23c.4-1.6.9-3.2 1.3-4.8h24.7L102.7 0H62.5c-2.2 7.9-4.3 15.7-6.5 23.6s-4.3 15.7-6.4 23.5zM6.3 71.7c3.1 0 5.3-1.1 7.5-2.9-.5-.6-.9-1.2-1.4-1.9-1.8 1.3-3.2 2.1-5.3 2.1-3.1 0-4.7-2.6-3.8-5.8.9-3.2 3.9-5.8 7-5.8 1.9 0 3.1.8 4 2l2.4-2.1c-1.2-1.5-2.7-2.5-5.7-2.5-5 0-9.5 3.8-10.8 8.5v.1C-1 68 1.6 71.7 6.3 71.7zm16.4-.3h2.9c.9-1.3 1.8-2.6 2.8-4h7.7c.2 1.3.3 2.6.6 4h3C38.9 66 38 60.5 37.2 55h-2.7c-3.9 5.5-7.8 11-11.8 16.4zm7.5-6.5c1.5-2.2 3-4.4 4.6-6.6.3 2.2.7 4.4 1 6.6h-5.6zm25.9 6.8c3.4 0 6.3-1.8 7.2-4.9.7-2.7-.7-4-3.9-4.8-3-.8-3.6-1.3-3.2-2.6v-.1c.3-1.1 1.5-1.9 3.2-1.9 1.5 0 2.8.6 4 1.7.7-.7 1.4-1.4 2.1-2.2-1.3-1.3-3-2.1-5.4-2.1-3.2 0-6.1 1.9-6.9 4.7v.1c-.8 3 .9 4 4.1 4.9 2.8.7 3.3 1.3 3 2.5-.3 1.2-1.7 2.1-3.5 2.1-2 0-3.4-.8-4.6-2.1-.8.7-1.5 1.4-2.3 2.1 1.6 1.7 3.7 2.6 6.2 2.6zm17.5-.3h2.9c1.5-5.5 3-10.9 4.5-16.4h-2.9c-1.5 5.5-3 11-4.5 16.4zm15.3 0h2.8c1.1-3.9 2.1-7.8 3.2-11.7 2 3.9 3.9 7.8 5.8 11.7h2.4c1.5-5.5 3-10.9 4.5-16.4h-2.8c-1 3.8-2.1 7.6-3.1 11.3-1.9-3.8-3.8-7.6-5.7-11.3h-2.7c-1.4 5.5-2.9 11-4.4 16.4zm34.3.3c5 0 9.7-3.9 10.9-8.5 1.3-4.6-1.2-8.4-6.2-8.4s-9.6 3.9-10.9 8.5v.1c-1.2 4.5 1.2 8.3 6.2 8.3zm.8-2.6c-3.3 0-4.9-2.6-4-5.8.9-3.2 3.9-5.8 7.1-5.8 3.3 0 4.9 2.6 4 5.8v.1c-.9 3.1-3.8 5.7-7.1 5.7z" fill="#fff"/></svg>